#Comment line ignore any data following # character 
#Hierarchical Translation and Rotation (.htr) file 
[Header]	
#Header keywords are followed by a single value 
FileType HTR		#Single word string
DataType HTRS		#Translation followed by rotation and scale data
FileVersion 1		#integer
NumSegments 84		#integer
NumFrames 2		#integer
DataFrameRate 30		#integer, data frame rate in this file
EulerRotationOrder ZYX
CalibrationUnits mm
RotationUnits Degrees
GlobalAxisofGravity Y
BoneLengthAxis Y
ScaleFactor 1.00
[SegmentNames&Hierarchy]
#CHILD	PARENT
MASTER GLOBAL
root MASTER
chest root
L_mid_tent01 root
R_mid_tent01 root
spine01 root
Bip01_Neck chest
L_humerus chest
R_humerus chest
weapon_bone chest
Bip01_Head Bip01_Neck
eye_left_bone Bip01_Head
eye_right_bone Bip01_Head
L_forearm L_humerus
L_front_hand L_forearm
L_weapon_bone L_forearm
L_front_hand01_01 L_front_hand
L_front_hand02_01 L_front_hand
L_front_hand03_01 L_front_hand
L_front_hand01_02 L_front_hand01_01
L_front_hand02_02 L_front_hand02_01
L_front_hand03_02 L_front_hand03_01
R_forearm R_humerus
R_front_hand R_forearm
R_weapon_bone R_forearm
R_front_hand01_01 R_front_hand
R_front_hand02_01 R_front_hand
R_front_hand03_01 R_front_hand
R_front_hand01_02 R_front_hand01_01
R_front_hand02_02 R_front_hand02_01
R_front_hand03_02 R_front_hand03_01
null_rope01_connect L_mid_tent01
Rope1_Seg01 null_rope01_connect
Rope1_Seg02 Rope1_Seg01
Rope1_Seg03 Rope1_Seg02
Rope1_Seg04 Rope1_Seg03
Rope1_Seg05 Rope1_Seg04
Rope1_Seg06 Rope1_Seg05
Rope1_Seg07 Rope1_Seg06
Rope1_Seg09 Rope1_Seg07
L_mid_hand01 Rope1_Seg09
L_mid_hand02 Rope1_Seg09
L_mid_hand03 Rope1_Seg09
null_rope02_connect R_mid_tent01
Rope2_Seg01 null_rope02_connect
Rope2_Seg02 Rope2_Seg01
Rope2_Seg03 Rope2_Seg02
Rope2_Seg04 Rope2_Seg03
Rope2_Seg05 Rope2_Seg04
Rope2_Seg06 Rope2_Seg05
Rope2_Seg07 Rope2_Seg06
Rope2_Seg09 Rope2_Seg07
R_mid_hand01 Rope2_Seg09
R_mid_hand02 Rope2_Seg09
R_mid_hand03 Rope2_Seg09
spine02 spine01
spine03 spine02
pelvis spine03
null_rope03_connect pelvis
null_rope04_connect pelvis
Rope3_Seg01 null_rope03_connect
Rope3_Seg02 Rope3_Seg01
Rope3_Seg03 Rope3_Seg02
Rope3_Seg04 Rope3_Seg03
Rope3_Seg05 Rope3_Seg04
Rope3_Seg06 Rope3_Seg05
Rope3_Seg07 Rope3_Seg06
Rope3_Seg08 Rope3_Seg07
Rope3_Seg09 Rope3_Seg08
R_rear_hand01 Rope3_Seg09
R_rear_hand02 Rope3_Seg09
R_rear_hand03 Rope3_Seg09
Rope4_Seg01 null_rope04_connect
Rope4_Seg02 Rope4_Seg01
Rope4_Seg03 Rope4_Seg02
Rope4_Seg04 Rope4_Seg03
Rope4_Seg05 Rope4_Seg04
Rope4_Seg06 Rope4_Seg05
Rope4_Seg07 Rope4_Seg06
Rope4_Seg08 Rope4_Seg07
Rope4_Seg09 Rope4_Seg08
L_rear_hand01 Rope4_Seg09
L_rear_hand02 Rope4_Seg09
L_rear_hand03 Rope4_Seg09
[BasePosition]
#SegmentName Tx, Ty, Tz, Rx, Ry, Rz, BoneLength
MASTER 0.000000 0.000000 0.000000 -90.000000 0.000000 0.000000 10.000000 
root 0.000000 0.000000 0.000000 0.000000 0.000000 0.000000 10.000000 
chest 0.000000 0.000000 0.000000 0.000000 0.000000 0.000000 10.000000 
L_mid_tent01 0.000000 0.000000 0.000000 0.000000 0.000000 0.000000 10.000000 
R_mid_tent01 0.000000 0.000000 0.000000 0.000000 0.000000 0.000000 10.000000 
spine01 0.000000 0.000000 0.000000 0.000000 0.000000 0.000000 10.000000 
Bip01_Neck 0.000000 0.000000 0.000000 0.000000 0.000000 0.000000 10.000000 
L_humerus 0.000000 0.000000 0.000000 0.000000 0.000000 0.000000 10.000000 
R_humerus 0.000000 0.000000 0.000000 0.000000 0.000000 0.000000 10.000000 
weapon_bone 0.000000 0.000000 0.000000 0.000000 0.000000 0.000000 10.000000 
Bip01_Head 0.000000 0.000000 0.000000 0.000000 0.000000 0.000000 10.000000 
eye_left_bone 0.000000 0.000000 0.000000 0.000000 0.000000 0.000000 10.000000 
eye_right_bone 0.000000 0.000000 0.000000 0.000000 0.000000 0.000000 10.000000 
L_forearm 0.000000 0.000000 0.000000 0.000000 0.000000 0.000000 10.000000 
L_front_hand 0.000000 0.000000 0.000000 0.000000 0.000000 0.000000 10.000000 
L_weapon_bone 0.000000 0.000000 0.000000 0.000000 0.000000 0.000000 10.000000 
L_front_hand01_01 0.000000 0.000000 0.000000 0.000000 0.000000 0.000000 10.000000 
L_front_hand02_01 0.000000 0.000000 0.000000 0.000000 0.000000 0.000000 10.000000 
L_front_hand03_01 0.000000 0.000000 0.000000 0.000000 0.000000 0.000000 10.000000 
L_front_hand01_02 0.000000 0.000000 0.000000 0.000000 0.000000 0.000000 10.000000 
L_front_hand02_02 0.000000 0.000000 0.000000 0.000000 0.000000 0.000000 10.000000 
L_front_hand03_02 0.000000 0.000000 0.000000 0.000000 0.000000 0.000000 10.000000 
R_forearm 0.000000 0.000000 0.000000 0.000000 0.000000 0.000000 10.000000 
R_front_hand 0.000000 0.000000 0.000000 0.000000 0.000000 0.000000 10.000000 
R_weapon_bone 0.000000 0.000000 0.000000 0.000000 0.000000 0.000000 10.000000 
R_front_hand01_01 0.000000 0.000000 0.000000 0.000000 0.000000 0.000000 10.000000 
R_front_hand02_01 0.000000 0.000000 0.000000 0.000000 0.000000 0.000000 10.000000 
R_front_hand03_01 0.000000 0.000000 0.000000 0.000000 0.000000 0.000000 10.000000 
R_front_hand01_02 0.000000 0.000000 0.000000 0.000000 0.000000 0.000000 10.000000 
R_front_hand02_02 0.000000 0.000000 0.000000 0.000000 0.000000 0.000000 10.000000 
R_front_hand03_02 0.000000 0.000000 0.000000 0.000000 0.000000 0.000000 10.000000 
null_rope01_connect 0.000000 0.000000 0.000000 0.000000 0.000000 0.000000 10.000000 
Rope1_Seg01 0.000000 0.000000 0.000000 0.000000 0.000000 0.000000 10.000000 
Rope1_Seg02 0.000000 0.000000 0.000000 0.000000 0.000000 0.000000 10.000000 
Rope1_Seg03 0.000000 0.000000 0.000000 0.000000 0.000000 0.000000 10.000000 
Rope1_Seg04 0.000000 0.000000 0.000000 0.000000 0.000000 0.000000 10.000000 
Rope1_Seg05 0.000000 0.000000 0.000000 0.000000 0.000000 0.000000 10.000000 
Rope1_Seg06 0.000000 0.000000 0.000000 0.000000 0.000000 0.000000 10.000000 
Rope1_Seg07 0.000000 0.000000 0.000000 0.000000 0.000000 0.000000 10.000000 
Rope1_Seg09 0.000000 0.000000 0.000000 0.000000 0.000000 0.000000 10.000000 
L_mid_hand01 0.000000 0.000000 0.000000 0.000000 0.000000 0.000000 10.000000 
L_mid_hand02 0.000000 0.000000 0.000000 0.000000 0.000000 0.000000 10.000000 
L_mid_hand03 0.000000 0.000000 0.000000 0.000000 0.000000 0.000000 10.000000 
null_rope02_connect 0.000000 0.000000 0.000000 0.000000 0.000000 0.000000 10.000000 
Rope2_Seg01 0.000000 0.000000 0.000000 0.000000 0.000000 0.000000 10.000000 
Rope2_Seg02 0.000000 0.000000 0.000000 0.000000 0.000000 0.000000 10.000000 
Rope2_Seg03 0.000000 0.000000 0.000000 0.000000 0.000000 0.000000 10.000000 
Rope2_Seg04 0.000000 0.000000 0.000000 0.000000 0.000000 0.000000 10.000000 
Rope2_Seg05 0.000000 0.000000 0.000000 0.000000 0.000000 0.000000 10.000000 
Rope2_Seg06 0.000000 0.000000 0.000000 0.000000 0.000000 0.000000 10.000000 
Rope2_Seg07 0.000000 0.000000 0.000000 0.000000 0.000000 0.000000 10.000000 
Rope2_Seg09 0.000000 0.000000 0.000000 0.000000 0.000000 0.000000 10.000000 
R_mid_hand01 0.000000 0.000000 0.000000 0.000000 0.000000 0.000000 10.000000 
R_mid_hand02 0.000000 0.000000 0.000000 0.000000 0.000000 0.000000 10.000000 
R_mid_hand03 0.000000 0.000000 0.000000 0.000000 0.000000 0.000000 10.000000 
spine02 0.000000 0.000000 0.000000 0.000000 0.000000 0.000000 10.000000 
spine03 0.000000 0.000000 0.000000 0.000000 0.000000 0.000000 10.000000 
pelvis 0.000000 0.000000 0.000000 0.000000 0.000000 0.000000 10.000000 
null_rope03_connect 0.000000 0.000000 0.000000 0.000000 0.000000 0.000000 10.000000 
null_rope04_connect 0.000000 0.000000 0.000000 0.000000 0.000000 0.000000 10.000000 
Rope3_Seg01 0.000000 0.000000 0.000000 0.000000 0.000000 0.000000 10.000000 
Rope3_Seg02 0.000000 0.000000 0.000000 0.000000 0.000000 0.000000 10.000000 
Rope3_Seg03 0.000000 0.000000 0.000000 0.000000 0.000000 0.000000 10.000000 
Rope3_Seg04 0.000000 0.000000 0.000000 0.000000 0.000000 0.000000 10.000000 
Rope3_Seg05 0.000000 0.000000 0.000000 0.000000 0.000000 0.000000 10.000000 
Rope3_Seg06 0.000000 0.000000 0.000000 0.000000 0.000000 0.000000 10.000000 
Rope3_Seg07 0.000000 0.000000 0.000000 0.000000 0.000000 0.000000 10.000000 
Rope3_Seg08 0.000000 0.000000 0.000000 0.000000 0.000000 0.000000 10.000000 
Rope3_Seg09 0.000000 0.000000 0.000000 0.000000 0.000000 0.000000 10.000000 
R_rear_hand01 0.000000 0.000000 0.000000 0.000000 0.000000 0.000000 10.000000 
R_rear_hand02 0.000000 0.000000 0.000000 0.000000 0.000000 0.000000 10.000000 
R_rear_hand03 0.000000 0.000000 0.000000 0.000000 0.000000 0.000000 10.000000 
Rope4_Seg01 0.000000 0.000000 0.000000 0.000000 0.000000 0.000000 10.000000 
Rope4_Seg02 0.000000 0.000000 0.000000 0.000000 0.000000 0.000000 10.000000 
Rope4_Seg03 0.000000 0.000000 0.000000 0.000000 0.000000 0.000000 10.000000 
Rope4_Seg04 0.000000 0.000000 0.000000 0.000000 0.000000 0.000000 10.000000 
Rope4_Seg05 0.000000 0.000000 0.000000 0.000000 0.000000 0.000000 10.000000 
Rope4_Seg06 0.000000 0.000000 0.000000 0.000000 0.000000 0.000000 10.000000 
Rope4_Seg07 0.000000 0.000000 0.000000 0.000000 0.000000 0.000000 10.000000 
Rope4_Seg08 0.000000 0.000000 0.000000 0.000000 0.000000 0.000000 10.000000 
Rope4_Seg09 0.000000 0.000000 0.000000 0.000000 0.000000 0.000000 10.000000 
L_rear_hand01 0.000000 0.000000 0.000000 0.000000 0.000000 0.000000 10.000000 
L_rear_hand02 0.000000 0.000000 0.000000 0.000000 0.000000 0.000000 10.000000 
L_rear_hand03 0.000000 0.000000 0.000000 0.000000 0.000000 0.000000 10.000000 
#Beginning of Data. Separated by tabs
#Fr	Tx	Ty	Tz	Rx	Ry	Rz	SF
[MASTER]
32 -2184.498779 -4945.562988 589.862305 0.000000 -0.002347 -90.000000 5438.617676
33 -1879.906372 -5207.148926 516.385925 0.000000 -0.002347 -90.000000 5560.135254
[root]
32 -85.671906 4.712279 1004.091614 -113.217552 -14.865634 -166.987198 1007.750854
33 -82.407661 6.396564 1074.935669 -108.374710 -16.467497 -167.630798 1078.108765
[chest]
32 -84.512650 -34.090519 0.000000 -37.126976 -8.129192 174.998306 91.129311
33 -84.512650 -34.090519 0.000000 -33.189342 -4.594646 175.716034 91.129311
[L_mid_tent01]
32 27.299311 22.179264 -249.918716 -5.744047 6.668340 -27.297424 252.381729
33 27.299316 22.179268 -249.918716 -4.784690 4.277306 -21.692249 252.381729
[R_mid_tent01]
32 23.228794 24.509907 226.238495 163.312958 -23.512522 75.534409 228.744751
33 23.228794 24.509907 226.238495 163.540512 -25.254198 75.204369 228.744751
[spine01]
32 -0.361383 -0.195265 0.000000 0.001953 0.001303 22.586205 0.410763
33 -0.361383 -0.195265 0.000000 0.001952 0.001303 22.550890 0.410763
[Bip01_Neck]
32 165.484543 71.581718 0.000119 176.643677 -1.657967 43.431911 180.302734
33 165.484543 71.581718 0.000119 176.643677 -1.657967 43.431911 180.302734
[L_humerus]
32 -13.983130 -135.272980 -120.471481 161.020599 20.780056 -109.481720 181.680161
33 -13.983130 -135.272980 -120.471481 148.532974 32.839706 -123.978058 181.680161
[R_humerus]
32 -13.983309 -135.273102 125.287651 -176.661224 -16.799868 -86.717445 184.909012
33 -13.983309 -135.273102 125.287651 -176.068253 -30.792727 -87.858521 184.909012
[weapon_bone]
32 235.964890 -300.705902 0.000000 0.000000 -89.951546 -128.212341 382.234833
33 235.964890 -300.705902 0.000000 0.000000 -89.951546 -128.212341 382.234833
[Bip01_Head]
32 213.403564 185.829529 10.305972 32.117016 6.150143 -43.831882 283.160583
33 213.409485 185.813065 10.518559 37.440578 6.148842 -43.831005 283.162048
[eye_left_bone]
32 -24.626970 125.451866 -64.772606 0.000000 -90.000000 -99.840431 143.318359
33 -24.626970 125.451866 -64.772606 0.000000 -90.000000 -99.840431 143.318359
[eye_right_bone]
32 -24.626970 125.451866 64.327362 0.000000 -89.965736 80.156380 143.117676
33 -24.626970 125.451866 64.327362 0.000000 -89.965736 80.156380 143.117676
[L_forearm]
32 322.776093 0.000000 -0.000119 0.000418 -0.002310 -110.522957 322.776093
33 322.776093 0.000000 -0.000119 0.000417 -0.002310 -110.446785 322.776093
[L_front_hand]
32 241.149185 -0.042021 -3.300071 -178.667953 -1.835447 -27.422350 241.171753
33 241.149185 -0.042021 -3.300071 -178.667953 -1.835447 -27.422350 241.171753
[L_weapon_bone]
32 156.183838 0.000000 0.000000 0.000014 0.000007 0.000001 156.183838
33 156.183838 0.000000 0.000000 0.000014 0.000007 0.000001 156.183838
[L_front_hand01_01]
32 86.095154 20.947098 -0.655860 -0.366594 -0.477154 75.385582 88.609184
33 86.095154 20.947098 -0.655860 -0.366594 -0.477154 75.385574 88.609184
[L_front_hand02_01]
32 86.935165 -11.437475 24.513514 154.399796 -59.883835 -61.369587 91.046425
33 86.935165 -11.437475 24.513514 154.399796 -59.883835 -61.369587 91.046425
[L_front_hand03_01]
32 86.637497 -14.123976 -20.424902 -153.913849 58.118130 -62.702866 90.126129
33 86.637497 -14.123976 -20.424902 -153.913879 58.118130 -62.702892 90.126129
[L_front_hand01_02]
32 71.020905 -0.000179 0.000030 0.000334 -0.002323 -106.371452 71.020905
33 71.020905 -0.000179 0.000030 0.000334 -0.002323 -106.372131 71.020905
[L_front_hand02_02]
32 71.020927 -0.000119 0.000060 0.000334 -0.002323 -106.371452 71.020927
33 71.020927 -0.000119 0.000060 0.000334 -0.002323 -106.372131 71.020927
[L_front_hand03_02]
32 71.020905 -0.000060 0.000060 0.000334 -0.002323 -106.371452 71.020905
33 71.020905 -0.000060 0.000060 0.000334 -0.002323 -106.372131 71.020905
[R_forearm]
32 322.776428 -0.000060 0.000030 0.201456 0.067130 -109.183235 322.776428
33 322.776428 -0.000060 0.000030 0.201504 0.066988 -109.101913 322.776428
[R_front_hand]
32 238.847015 -0.006795 2.210259 -2.635298 -10.645461 -26.312506 238.857239
33 238.847015 -0.006795 2.210259 -2.635298 -10.645461 -26.312506 238.857239
[R_weapon_bone]
32 155.664093 0.002503 -0.000030 0.003487 0.001180 -90.988930 155.664078
33 155.664093 0.002503 -0.000030 0.003487 0.001180 -90.988930 155.664078
[R_front_hand01_01]
32 87.624611 14.231146 22.918642 -154.633499 -59.950619 61.746044 91.683487
33 87.624611 14.231146 22.918642 -154.633499 -59.950619 61.746044 91.683487
[R_front_hand02_01]
32 89.356956 14.367283 -19.491137 154.602661 58.302849 63.744389 92.579636
33 89.356956 14.367283 -19.491137 154.602661 58.302849 63.744389 92.579636
[R_front_hand03_01]
32 87.286232 -22.307278 -0.143439 0.162155 -0.423168 -75.767921 90.091743
33 87.286232 -22.307278 -0.143439 0.162155 -0.423168 -75.767921 90.091743
[R_front_hand01_02]
32 71.020905 0.000060 0.000119 0.002323 -0.000334 106.381714 71.020905
33 71.020905 0.000060 0.000119 0.002323 -0.000334 106.381714 71.020905
[R_front_hand02_02]
32 71.020844 -0.000030 -0.000119 0.002323 -0.000334 106.381714 71.020836
33 71.020844 -0.000030 -0.000119 0.002323 -0.000334 106.381714 71.020836
[R_front_hand03_02]
32 71.020905 0.000000 0.000030 0.002323 -0.000334 106.381714 71.020905
33 71.020905 0.000000 0.000030 0.002323 -0.000334 106.381714 71.020905
[null_rope01_connect]
32 328.732483 0.000000 -0.000238 173.179779 68.097191 129.288513 328.732483
33 328.732483 0.000000 -0.000238 -179.063232 71.479156 131.871674 328.732483
[Rope1_Seg01]
32 0.000000 0.000000 0.000000 -28.143694 -36.620853 162.416016 0.000000
33 0.000000 0.000000 0.000000 -11.421021 -21.067406 129.712387 0.000000
[Rope1_Seg02]
32 139.999863 -0.000179 0.000000 0.694321 1.237455 0.934081 139.999863
33 139.999863 -0.000179 0.000000 -0.218984 2.502495 -1.041978 139.999863
[Rope1_Seg03]
32 139.999924 0.000060 -0.000060 -0.339902 1.161840 -2.460119 139.999924
33 139.999924 0.000060 -0.000060 -0.197742 2.486926 -1.664834 139.999924
[Rope1_Seg04]
32 139.999924 -0.000060 -0.000119 4.247128 3.869854 9.236541 139.999924
33 139.999924 -0.000060 -0.000119 0.564869 2.884052 -6.755982 139.999924
[Rope1_Seg05]
32 139.999832 0.000119 -0.000060 5.781789 3.159769 11.345037 139.999832
33 139.999832 0.000119 -0.000060 -1.858862 1.904320 6.707537 139.999832
[Rope1_Seg06]
32 139.999954 0.000119 -0.000060 1.937811 1.339921 3.086714 139.999954
33 139.999954 0.000119 -0.000060 -1.804359 0.010700 13.162847 139.999954
[Rope1_Seg07]
32 139.999985 0.000060 0.000000 1.171895 0.834559 1.751278 139.999985
33 139.999985 0.000060 0.000000 -0.303798 0.031445 5.627104 139.999985
[Rope1_Seg09]
32 121.602913 0.000119 -0.000089 -89.793175 -1.359789 0.847147 121.602913
33 121.602913 0.000119 -0.000089 -89.793175 -1.359789 0.847147 121.602913
[L_mid_hand01]
32 103.859421 1.038730 8.195221 130.544373 -67.584534 -38.866943 104.187431
33 103.859421 1.038730 8.195221 130.544373 -67.584534 -38.866943 104.187431
[L_mid_hand02]
32 105.572853 -4.139662 -10.864139 -168.923172 43.409309 -73.498886 106.211075
33 105.572853 -4.139662 -10.864139 -168.923172 43.409317 -73.498901 106.211075
[L_mid_hand03]
32 104.641464 17.579376 -3.913581 -6.012626 17.808172 74.893661 106.179977
33 104.641464 17.579376 -3.913581 -6.012628 17.808178 74.893669 106.179977
[null_rope02_connect]
32 328.732849 0.000179 -0.000119 73.008263 -55.478928 -102.453026 328.732849
33 328.732849 0.000179 -0.000119 82.368736 -55.465256 -114.189095 328.732849
[Rope2_Seg01]
32 -0.000053 -0.000072 0.000000 17.959898 83.935120 -49.035061 0.000090
33 -0.000052 -0.000069 0.000000 -178.902069 39.222240 128.567291 0.000086
[Rope2_Seg02]
32 139.999741 -0.000060 -0.000119 1.703813 8.024032 -11.501348 139.999756
33 139.999741 -0.000060 -0.000119 -6.583014 3.820879 0.758302 139.999756
[Rope2_Seg03]
32 140.000107 0.000030 0.000000 4.846857 8.388824 -13.719445 140.000107
33 140.000107 0.000030 0.000000 -4.994251 -0.186216 2.049453 140.000107
[Rope2_Seg04]
32 139.999802 0.000000 -0.000060 43.964970 6.018316 -47.757179 139.999802
33 139.999802 0.000000 -0.000060 -2.319057 3.860180 -1.016920 139.999802
[Rope2_Seg05]
32 139.999985 -0.000060 0.000119 22.561117 -14.702602 -19.704578 139.999985
33 139.999985 -0.000060 0.000119 -9.014752 10.870524 -4.232004 139.999985
[Rope2_Seg06]
32 139.999893 -0.000030 -0.000119 3.833252 -5.614451 -3.565755 139.999893
33 139.999893 -0.000030 -0.000119 -159.580231 10.877930 -2.223550 139.999893
[Rope2_Seg07]
32 139.999893 0.000060 -0.000060 0.115800 -0.285030 -0.156891 139.999893
33 139.999893 0.000060 -0.000060 -4.738219 -8.149574 5.069952 139.999893
[Rope2_Seg09]
32 121.338966 0.000089 -0.000060 33.793236 -1.359788 -0.847141 121.338966
33 121.338966 0.000089 -0.000060 33.793236 -1.359788 -0.847141 121.338966
[R_mid_hand01]
32 104.680779 11.144459 -10.335981 -16.212063 45.237247 70.462852 105.778534
33 104.680779 11.144459 -10.335981 -16.212063 45.237247 70.462852 105.778534
[R_mid_hand02]
32 104.070427 2.443552 8.231699 49.067368 -67.749771 39.286453 104.424065
33 104.070427 2.443552 8.231699 49.067368 -67.749771 39.286453 104.424065
[R_mid_hand03]
32 106.028137 -11.221827 -5.996406 -177.101105 15.551026 -76.585571 106.788818
33 106.028137 -11.221827 -5.996406 -177.101105 15.551026 -76.585571 106.788818
[spine02]
32 129.756927 0.001550 0.000119 0.471056 -4.032460 -14.512738 129.756927
33 129.756927 0.001550 0.000119 0.462670 -4.033486 -14.396502 129.756927
[spine03]
32 78.614014 0.081739 -4.898996 1.964707 3.799867 17.468864 78.766556
33 78.614014 0.081738 -4.898995 1.959691 3.802059 17.396988 78.766556
[pelvis]
32 169.435242 0.051022 0.000000 -55.510967 1.177179 -8.123321 169.435257
33 169.435242 0.051022 0.000000 -54.070026 1.634511 -7.149016 169.435257
[null_rope03_connect]
32 -1.257226 -2.466202 137.391083 -178.000015 13.154837 95.289520 137.418976
33 -1.257226 -2.466202 137.391083 -177.592560 19.383337 95.434174 137.418976
[null_rope04_connect]
32 -1.259640 -2.480268 -137.844437 -178.000015 13.154837 95.289520 137.872513
33 -1.259640 -2.480268 -137.844437 -177.592560 19.383337 95.434174 137.872513
[Rope3_Seg01]
32 0.000000 0.000000 0.000000 -128.187805 -42.958645 92.198662 0.000000
33 0.000000 0.000000 0.000000 -131.731339 -20.627003 102.632629 0.000000
[Rope3_Seg02]
32 139.999924 -0.000119 0.000060 0.651017 -11.288932 4.650081 139.999924
33 139.999924 -0.000119 0.000060 0.561047 -4.662807 0.849998 139.999924
[Rope3_Seg03]
32 139.999924 -0.000119 0.000119 0.858233 -9.735161 5.400686 139.999924
33 139.999924 -0.000119 0.000119 0.701895 -4.714528 1.027127 139.999924
[Rope3_Seg04]
32 139.999924 0.000119 0.000000 0.656245 -7.080531 5.532933 139.999924
33 139.999924 0.000119 0.000000 0.976449 -5.879188 1.947429 139.999924
[Rope3_Seg05]
32 139.999924 -0.000238 0.000060 0.987936 -6.963600 -1.549952 139.999924
33 139.999924 -0.000238 0.000060 0.372825 -1.732209 -0.666779 139.999924
[Rope3_Seg06]
32 139.999893 -0.000119 -0.000060 2.426756 -10.022636 -7.670041 139.999893
33 139.999893 -0.000119 -0.000060 -0.267120 1.677877 -2.475557 139.999893
[Rope3_Seg07]
32 139.999771 0.000060 -0.000119 4.128151 -10.290128 -5.295877 139.999771
33 139.999771 0.000060 -0.000119 0.239389 0.419766 -1.263599 139.999771
[Rope3_Seg08]
32 139.999985 -0.000060 0.000000 4.600923 -8.206225 -3.316244 139.999985
33 139.999985 -0.000060 0.000000 0.401573 0.108098 -0.734880 139.999985
[Rope3_Seg09]
32 90.185997 -0.000179 -0.000060 89.793228 -1.359877 -0.847183 90.185997
33 90.185997 -0.000179 -0.000060 89.793228 -1.359877 -0.847183 90.185997
[R_rear_hand01]
32 103.366196 -6.073594 -10.757982 -177.714203 24.565960 -73.910950 104.101845
33 103.366196 -6.073594 -10.757982 -177.714203 24.565960 -73.910950 104.101845
[R_rear_hand02]
32 100.509819 12.039542 -7.992327 -12.874829 36.868488 72.167213 101.543350
33 100.509819 12.039542 -7.992327 -12.874829 36.868488 72.167213 101.543350
[R_rear_hand03]
32 101.539970 5.215704 5.435467 71.484581 -71.816628 21.513813 101.819031
33 101.539970 5.215704 5.435467 71.484581 -71.816628 21.513813 101.819031
[Rope4_Seg01]
32 0.000010 0.000014 -0.000058 61.516159 -21.803785 41.813000 0.000061
33 0.000010 0.000014 -0.000055 62.895191 -27.082571 48.267502 0.000057
[Rope4_Seg02]
32 139.999985 0.000060 0.000119 14.857200 14.554650 35.950539 139.999985
33 139.999985 0.000060 0.000119 11.769133 36.065655 30.764671 139.999985
[Rope4_Seg03]
32 139.999924 0.000000 -0.000238 -0.032197 27.519430 63.287781 139.999924
33 139.999924 0.000000 -0.000238 2.775585 42.034901 37.219433 139.999924
[Rope4_Seg04]
32 139.999985 0.000000 0.000119 -4.453343 10.370833 9.040563 139.999985
33 139.999985 0.000000 0.000119 7.712702 -3.102120 -6.245041 139.999985
[Rope4_Seg05]
32 139.999802 -0.000060 -0.000119 5.244761 7.827631 0.817278 139.999802
33 139.999802 -0.000060 -0.000119 2.663947 -2.447675 -2.999735 139.999802
[Rope4_Seg06]
32 139.999924 0.000000 0.000060 -0.199754 3.398277 1.717658 139.999924
33 139.999924 0.000000 0.000060 0.745488 -0.345282 -0.648491 139.999924
[Rope4_Seg07]
32 139.999802 0.000000 0.000000 -0.168483 2.258855 1.155878 139.999802
33 139.999802 0.000000 0.000000 0.551513 -0.233667 -0.429746 139.999802
[Rope4_Seg08]
32 139.999924 0.000000 0.000119 -1.691271 1.382356 0.713357 139.999924
33 139.999924 0.000000 0.000119 -1.199821 -0.149484 -0.263857 139.999924
[Rope4_Seg09]
32 90.185791 0.000060 0.000060 -135.617828 2.228885 0.850567 90.185791
33 90.185791 0.000060 0.000060 -135.617828 2.228885 0.850567 90.185791
[L_rear_hand01]
32 101.696655 -8.392275 -7.654577 -12.874829 -36.868488 107.832764 102.329041
33 101.696655 -8.392275 -7.654577 -12.874827 -36.868492 107.832764 102.329041
[L_rear_hand02]
32 102.726799 -1.568258 5.773216 71.484581 71.816628 158.486160 102.900848
33 102.726799 -1.568258 5.773216 71.484581 71.816628 158.486160 102.900848
[L_rear_hand03]
32 104.552910 9.721220 -10.420293 -177.714203 -24.565960 -106.089035 105.519653
33 104.552910 9.721220 -10.420293 -177.714203 -24.565958 -106.089043 105.519653
